<svg width="384" height="64" fill="none" xmlns="http://www.w3.org/2000/svg"><path d="M42 9h4v14h-4V9ZM49 9h4v14h-4V9ZM109 23h6l4-4v-6l-4-4h-6l-4 4v6l4 4ZM74 9l12 7-12 7V9ZM201 9h7v2h-5v10h10v-5h2v7h-14V9Z" fill="#000"/><path d="m207 15.5 4.5-4.5-2-2h5.5v5.5l-2-2-4.5 4.5H207v-1.5Z" fill="#000"/><path d="M10 55V41h2v14h-2ZM12 42s3-1 5 1 5 1 5 1v8s-3 1-5-1-5-1-5-1v-8ZM42 41h4v14h-4V41ZM49 41h4v14h-4V41ZM109 55h6l4-4v-6l-4-4h-6l-4 4v6l4 4ZM74 41l12 7-12 7V41ZM177 47v-5.5l2 2 2.5-2.5.656.656.844.844-2.5 2.5 2 2H177ZM175 47h-5.5l2-2-2.5-2.5 1.5-1.5 2.5 2.5 2-2V47ZM175 49v5.5l-2-2-2.5 2.5-1.5-1.5 2.5-2.5-2-2h5.5ZM177 49h5.5l-2 2 2.5 2.5-.656.656-.844.844-2.5-2.5-2 2V49Z" fill="#fff"/><path d="M240 26c5.523 0 10-4.477 10-10s-4.477-10-10-10-10 4.477-10 10 4.477 10 10 10Z" fill="#2EAEDF"/><path d="m234 17.5 4 4 7-7v-4l-7 7-2-2-2 2Z" fill="#fff"/><path d="M268 4s-5.056 12.797-6.249 15.623c-1.193 2.825.189 3.61 2.771 2.589C267.105 21.192 303 7 303 7V4l-38 15 6-15h-3Z" fill="#A0A0A0"/><path d="m265 19 6-15h32l-38 15Z" fill="#fff"/><path d="M295 36s5.056 12.797 6.249 15.623c1.193 2.826-.189 3.61-2.772 2.589L260 39v-3l38 15-6-15h3Z" fill="#A0A0A0"/><path d="m298 51-6-15h-32l38 15Z" fill="#fff"/><path d="M328.917 23.584c1.933 0 3.5-.896 3.5-2 0-1.105-1.567-2-3.5-2s-3.5.895-3.5 2c0 1.104 1.567 2 3.5 2Z" fill="#fff" stroke="#A0A0A0"/><path d="M335.717 19.621c2.304 0 4.172-.927 4.172-2.071 0-1.144-1.868-2.071-4.172-2.071-2.303 0-4.171.927-4.171 2.071 0 1.144 1.868 2.071 4.171 2.071Z" fill="#fff" stroke="#A0A0A0" stroke-width="1.358"/><path d="M341.5 14.095c3.038 0 5.5-1.386 5.5-3.095 0-1.71-2.462-3.095-5.5-3.095S336 9.291 336 11c0 1.71 2.462 3.095 5.5 3.095Z" fill="#fff" stroke="#A0A0A0" stroke-width="1.826"/><path d="M363.083 55.584c-1.933 0-3.5-.895-3.5-2s1.567-2 3.5-2 3.5.895 3.5 2-1.567 2-3.5 2Z" fill="#fff" stroke="#A0A0A0"/><path d="M356.283 51.622c-2.304 0-4.172-.928-4.172-2.072 0-1.143 1.868-2.07 4.172-2.07 2.303 0 4.171.927 4.171 2.07 0 1.144-1.868 2.072-4.171 2.072Z" fill="#fff" stroke="#A0A0A0" stroke-width="1.358"/><path d="M350.5 46.095c-3.038 0-5.5-1.385-5.5-3.094 0-1.71 2.462-3.095 5.5-3.095S356 41.29 356 43c0 1.709-2.462 3.094-5.5 3.094Z" fill="#fff" stroke="#A0A0A0" stroke-width="1.826"/><path d="M151 41v5.5l-2-2-2.5 2.5-.656-.656L145 45.5l2.5-2.5-2-2h5.5ZM137 41h5.5l-2 2 2.5 2.5-1.5 1.5-2.5-2.5-2 2V41ZM137 55v-5.5l2 2 2.5-2.5 1.5 1.5-2.5 2.5 2 2H137ZM151 55h-5.5l2-2-2.5-2.5.656-.656.844-.844 2.5 2.5 2-2V55ZM201 41h7v2h-5v10h10v-5h2v7h-14V41Z" fill="#fff"/><path d="m207 47.5 4.5-4.5-2-2h5.5v5.5l-2-2-4.5 4.5H207v-1.5Z" fill="#fff"/><path d="M10 8.274a6.44 6.44 0 0 1 7.69 0 6.44 6.44 0 0 0 7.69 0v10.4a6.44 6.44 0 0 1-7.69 0 6.44 6.44 0 0 0-7.69 0" fill="#4CBF56"/><path d="M10 8.274a6.44 6.44 0 0 1 7.69 0v0a6.44 6.44 0 0 0 7.69 0v10.4a6.44 6.44 0 0 1-7.69 0 6.44 6.44 0 0 0-7.69 0" stroke="#45993D" stroke-linecap="round" stroke-linejoin="round"/><path d="M10 23.024v-16" stroke="#45993D" stroke-width="1.5" stroke-linecap="round" stroke-linejoin="round"/><path d="M108.683 8h6.654l4.683 4.683v6.654l-4.683 4.683h-6.654L104 19.337v-6.654L108.683 8Z" fill="#EC5959" stroke="#B84848" stroke-miterlimit="10" stroke-linecap="round" stroke-linejoin="round"/><path fill-rule="evenodd" clip-rule="evenodd" d="m150.338 13.35-.889-.891-3.134 2.374a.815.815 0 0 1-1.15-.165.82.82 0 0 1 0-.986l2.368-3.142-.867-.871a.387.387 0 0 1 .269-.664L150.612 9a.398.398 0 0 1 .388.389v3.692a.387.387 0 0 1-.662.27ZM137.662 18.65l.889.89 3.134-2.374a.817.817 0 0 1 1.15.166.82.82 0 0 1 0 .985l-2.37 3.143.869.871a.387.387 0 0 1-.269.664l-3.677.005a.398.398 0 0 1-.388-.389V18.92c0-.342.418-.514.662-.27ZM137.662 13.35l.889-.891 3.134 2.374a.815.815 0 0 0 1.15-.165.82.82 0 0 0 0-.986l-2.37-3.142.869-.871a.387.387 0 0 0-.269-.664L137.388 9a.398.398 0 0 0-.388.389v3.692c0 .341.418.514.662.27ZM150.338 18.65l-.889.89-3.134-2.374a.817.817 0 0 0-1.15.166.82.82 0 0 0 0 .985l2.368 3.143-.867.871a.387.387 0 0 0 .269.664l3.677.005a.398.398 0 0 0 .388-.389V18.92a.387.387 0 0 0-.662-.27ZM178.662 9.65l.889.891 3.134-2.374a.815.815 0 0 1 1.15.165.82.82 0 0 1 0 .986l-2.368 3.142.867.871a.387.387 0 0 1-.269.664l-3.677.005a.398.398 0 0 1-.388-.389V9.92c0-.341.418-.514.662-.27ZM173.338 22.35l-.889-.89-3.134 2.374a.817.817 0 0 1-1.15-.166.82.82 0 0 1 0-.985l2.37-3.143-.869-.871a.387.387 0 0 1 .269-.664l3.677-.005a.398.398 0 0 1 .388.389v3.692a.387.387 0 0 1-.662.27ZM173.338 9.65l-.889.891-3.134-2.374a.815.815 0 0 0-1.15.165.82.82 0 0 0 0 .986l2.37 3.142-.869.871a.387.387 0 0 0 .269.664l3.677.005a.398.398 0 0 0 .388-.389V9.92a.387.387 0 0 0-.662-.27ZM178.662 22.35l.889-.89 3.134 2.374a.817.817 0 0 0 1.15-.166.82.82 0 0 0 0-.985l-2.368-3.143.867-.871a.387.387 0 0 0-.269-.664L178.388 18a.398.398 0 0 0-.388.389v3.692c0 .342.418.514.662.27Z" fill="#575E75"/></svg>