<svg width="384" height="64" viewBox="0 0 384 64" fill="none" xmlns="http://www.w3.org/2000/svg">
<path d="M42 9H46V23H42V9Z" fill="black"></path>
<path d="M49 9H53V23H49V9Z" fill="black"></path>
<path d="M109 23H115L119 19V13L115 9H109L105 13V19L109 23Z" fill="black"></path>
<path d="M74 9L86 16L74 23V9Z" fill="black"></path>
<path d="M201 9H208V11H203V21H213V16H215V23H201V9Z" fill="black"></path>
<path d="M207 15.5L211.5 11L209.5 9H215V14.5L213 12.5L208.5 17H207V15.5Z" fill="black"></path>
<path d="M10 55V41H12V55H10Z" fill="white"></path>
<path d="M12 42C12 42 15 41 17 43C19 45 22 44 22 44V52C22 52 19 53 17 51C15 49 12 50 12 50V42Z" fill="white"></path>
<path d="M42 41H46V55H42V41Z" fill="white"></path>
<path d="M49 41H53V55H49V41Z" fill="white"></path>
<path d="M109 55H115L119 51V45L115 41H109L105 45V51L109 55Z" fill="white"></path>
<path d="M74 41L86 48L74 55V41Z" fill="white"></path>
<path d="M177 47V41.5L179 43.5L181.5 41L182.156 41.6559L183 42.5L180.5 45L182.5 47H177Z" fill="white"></path>
<path d="M175 47H169.5L171.5 45L169 42.5L170.5 41L173 43.5L175 41.5V47Z" fill="white"></path>
<path d="M175 49V54.5L173 52.5L170.5 55L169 53.5L171.5 51L169.5 49H175Z" fill="white"></path>
<path d="M177 49H182.5L180.5 51L183 53.5L182.344 54.1559L181.5 55L179 52.5L177 54.5V49Z" fill="white"></path>
<path d="M240 26C245.523 26 250 21.5228 250 16C250 10.4772 245.523 6 240 6C234.477 6 230 10.4772 230 16C230 21.5228 234.477 26 240 26Z" fill="#2EAEDF"></path>
<path d="M234 17.5L238 21.5L245 14.5V10.5L238 17.5L236 15.5L234 17.5Z" fill="white"></path>
<path d="M268 4C268 4 262.944 16.7972 261.751 19.6228C260.558 22.4485 261.94 23.2329 264.522 22.212C267.105 21.1911 303 7 303 7V4L265 19L271 4H268Z" fill="#A0A0A0"></path>
<path d="M265 19L271 4H303L265 19Z" fill="white"></path>
<path d="M295 36C295 36 300.056 48.7972 301.249 51.6228C302.442 54.4485 301.06 55.2329 298.477 54.212C295.895 53.1911 260 39 260 39V36L298 51L292 36H295Z" fill="#A0A0A0"></path>
<path d="M298 51L292 36H260L298 51Z" fill="white"></path>
<path d="M328.917 23.5836C330.85 23.5836 332.417 22.6881 332.417 21.5835C332.417 20.4789 330.85 19.5835 328.917 19.5835C326.984 19.5835 325.417 20.4789 325.417 21.5835C325.417 22.6881 326.984 23.5836 328.917 23.5836Z" fill="white" stroke="#A0A0A0" stroke-width="0.999901"></path>
<path d="M335.717 19.6211C338.021 19.6211 339.889 18.6938 339.889 17.55C339.889 16.4061 338.021 15.4789 335.717 15.4789C333.414 15.4789 331.546 16.4061 331.546 17.55C331.546 18.6938 333.414 19.6211 335.717 19.6211Z" fill="white" stroke="#A0A0A0" stroke-width="1.3578"></path>
<path d="M341.5 14.0947C344.538 14.0947 347 12.7092 347 11C347 9.29083 344.538 7.90527 341.5 7.90527C338.462 7.90527 336 9.29083 336 11C336 12.7092 338.462 14.0947 341.5 14.0947Z" fill="white" stroke="#A0A0A0" stroke-width="1.82647"></path>
<path d="M363.083 55.5841C361.15 55.5841 359.583 54.6886 359.583 53.584C359.583 52.4794 361.15 51.584 363.083 51.584C365.016 51.584 366.583 52.4794 366.583 53.584C366.583 54.6886 365.016 55.5841 363.083 55.5841Z" fill="white" stroke="#A0A0A0" stroke-width="0.999901"></path>
<path d="M356.283 51.6216C353.979 51.6216 352.111 50.6943 352.111 49.5505C352.111 48.4066 353.979 47.4794 356.283 47.4794C358.586 47.4794 360.454 48.4066 360.454 49.5505C360.454 50.6943 358.586 51.6216 356.283 51.6216Z" fill="white" stroke="#A0A0A0" stroke-width="1.3578"></path>
<path d="M350.5 46.0952C347.462 46.0952 345 44.7096 345 43.0005C345 41.2913 347.462 39.9057 350.5 39.9057C353.538 39.9057 356 41.2913 356 43.0005C356 44.7096 353.538 46.0952 350.5 46.0952Z" fill="white" stroke="#A0A0A0" stroke-width="1.82647"></path>
<path d="M151 41V46.5L149 44.5L146.5 47L145.844 46.3441L145 45.5L147.5 43L145.5 41H151Z" fill="white"></path>
<path d="M137 41H142.5L140.5 43L143 45.5L141.5 47L139 44.5L137 46.5V41Z" fill="white"></path>
<path d="M137 55V49.5L139 51.5L141.5 49L143 50.5L140.5 53L142.5 55H137Z" fill="white"></path>
<path d="M151 55H145.5L147.5 53L145 50.5L145.656 49.8441L146.5 49L149 51.5L151 49.5V55Z" fill="white"></path>
<path d="M201 41H208V43H203V53H213V48H215V55H201V41Z" fill="white"></path>
<path d="M207 47.5L211.5 43L209.5 41H215V46.5L213 44.5L208.5 49H207V47.5Z" fill="white"></path>
<path d="M10 8.2738C11.1113 7.4467 12.4597 7 13.845 7C15.2303 7 16.5787 7.4467 17.69 8.2738V8.2738C18.8013 9.1009 20.1497 9.54761 21.535 9.54761C22.9203 9.54761 24.2687 9.1009 25.38 8.2738V18.6738C24.2687 19.5009 22.9203 19.9476 21.535 19.9476C20.1497 19.9476 18.8013 19.5009 17.69 18.6738C16.5787 17.8467 15.2303 17.4 13.845 17.4C12.4597 17.4 11.1113 17.8467 10 18.6738" fill="#4CBF56"></path>
<path d="M10 8.2738C11.1113 7.4467 12.4597 7 13.845 7C15.2303 7 16.5787 7.4467 17.69 8.2738V8.2738C18.8013 9.1009 20.1497 9.54761 21.535 9.54761C22.9203 9.54761 24.2687 9.1009 25.38 8.2738V18.6738C24.2687 19.5009 22.9203 19.9476 21.535 19.9476C20.1497 19.9476 18.8013 19.5009 17.69 18.6738C16.5787 17.8467 15.2303 17.4 13.845 17.4C12.4597 17.4 11.1113 17.8467 10 18.6738" stroke="#45993D" stroke-linecap="round" stroke-linejoin="round"></path>
<path d="M10 23.0238V7.0238" stroke="#45993D" stroke-width="1.5" stroke-linecap="round" stroke-linejoin="round"></path>
<path d="M108.683 8H115.337L120.02 12.6828V19.3372L115.337 24.02H108.683L104 19.3372V12.6828L108.683 8Z" fill="#EC5959" stroke="#B84848" stroke-miterlimit="10" stroke-linecap="round" stroke-linejoin="round"></path>
<path fill-rule="evenodd" clip-rule="evenodd" d="M150.338 13.3504L149.449 12.4588L146.315 14.8334C145.957 15.1083 145.439 15.0362 145.165 14.6675C144.943 14.3709 144.948 13.962 145.165 13.6822L147.533 10.5401L146.666 9.66864C146.417 9.41895 146.594 9.00503 146.935 9.00503L150.612 9C150.824 9.00503 151 9.18099 151 9.38878V13.0806C151 13.4224 150.582 13.595 150.338 13.3504Z" fill="#575E75"></path>
<path fill-rule="evenodd" clip-rule="evenodd" d="M137.662 18.6493L138.551 19.5409L141.685 17.1661C142.043 16.8912 142.561 16.965 142.835 17.332C143.057 17.6286 143.052 18.0376 142.835 18.3175L140.465 21.4598L141.334 22.3313C141.583 22.581 141.406 22.995 141.065 22.995L137.388 23C137.176 22.995 137 22.819 137 22.6112V18.9191C137 18.5772 137.418 18.4046 137.662 18.6493Z" fill="#575E75"></path>
<path fill-rule="evenodd" clip-rule="evenodd" d="M137.662 13.3504L138.551 12.4588L141.685 14.8334C142.043 15.1083 142.561 15.0362 142.835 14.6675C143.057 14.3709 143.052 13.962 142.835 13.6822L140.465 10.5401L141.334 9.66864C141.583 9.41895 141.406 9.00503 141.065 9.00503L137.388 9C137.176 9.00503 137 9.18099 137 9.38878V13.0806C137 13.4224 137.418 13.595 137.662 13.3504Z" fill="#575E75"></path>
<path fill-rule="evenodd" clip-rule="evenodd" d="M150.338 18.6493L149.449 19.5409L146.315 17.1661C145.957 16.8912 145.439 16.965 145.165 17.332C144.943 17.6286 144.948 18.0376 145.165 18.3175L147.533 21.4598L146.666 22.3313C146.417 22.581 146.594 22.995 146.935 22.995L150.612 23C150.824 22.995 151 22.819 151 22.6112V18.9191C151 18.5772 150.582 18.4046 150.338 18.6493Z" fill="#575E75"></path>
<path fill-rule="evenodd" clip-rule="evenodd" d="M178.662 9.64965L179.551 10.5412L182.685 8.16657C183.043 7.89174 183.561 7.9638 183.835 8.33248C184.057 8.62909 184.052 9.03798 183.835 9.31784L181.467 12.4599L182.334 13.3314C182.583 13.5811 182.406 13.995 182.065 13.995L178.388 14C178.176 13.995 178 13.819 178 13.6112V9.91945C178 9.57759 178.418 9.40498 178.662 9.64965Z" fill="#575E75"></path>
<path fill-rule="evenodd" clip-rule="evenodd" d="M173.338 22.3507L172.449 21.4591L169.315 23.8339C168.957 24.1088 168.439 24.035 168.165 23.668C167.943 23.3714 167.948 22.9624 168.165 22.6825L170.535 19.5402L169.666 18.6687C169.417 18.419 169.594 18.005 169.935 18.005L173.612 18C173.824 18.005 174 18.181 174 18.3888V22.0809C174 22.4228 173.582 22.5954 173.338 22.3507Z" fill="#575E75"></path>
<path fill-rule="evenodd" clip-rule="evenodd" d="M173.338 9.64965L172.449 10.5412L169.315 8.16657C168.957 7.89174 168.439 7.9638 168.165 8.33248C167.943 8.62909 167.948 9.03798 168.165 9.31784L170.535 12.4599L169.666 13.3314C169.417 13.5811 169.594 13.995 169.935 13.995L173.612 14C173.824 13.995 174 13.819 174 13.6112V9.91945C174 9.57759 173.582 9.40498 173.338 9.64965Z" fill="#575E75"></path>
<path fill-rule="evenodd" clip-rule="evenodd" d="M178.662 22.3507L179.551 21.4591L182.685 23.8339C183.043 24.1088 183.561 24.035 183.835 23.668C184.057 23.3714 184.052 22.9624 183.835 22.6825L181.467 19.5402L182.334 18.6687C182.583 18.419 182.406 18.005 182.065 18.005L178.388 18C178.176 18.005 178 18.181 178 18.3888V22.0809C178 22.4228 178.418 22.5954 178.662 22.3507Z" fill="#575E75"></path>
</svg>
