<svg width="20" height="20" xmlns="http://www.w3.org/2000/svg"><g id="Page-1" stroke="none" stroke-width="1" fill="none" fill-rule="evenodd"><g id="sprite-library" fill="#FFF"><path d="M18.5 2.5h.75a.75.75 0 1 1 0 1.5h-.75v.75a.75.75 0 1 1-1.5 0V4h-.75a.75.75 0 1 1 0-1.5H17v-.75a.75.75 0 1 1 1.5 0v.75Zm-2.579 9.887c0 3.253-2.648 4.613-5.901 4.613-3.253 0-5.888-1.36-5.888-4.613 0-.804.135-1.484.396-2.053L4.43 5.633a.616.616 0 0 1 .99-.507L7.93 7.018c.582-.309 1.299-.445 2.09-.445.792 0 1.522.136 2.104.445l2.51-1.892c.41-.31.99-.013.99.507l-.098 4.7c.26.57.395 1.25.395 2.054Zm-3.415 2.028c.175-.184.149-.482-.048-.655a.47.47 0 0 0-.656.063.731.731 0 0 1-1.275-.484v-.68c.717-.198 1.262-.803 1.262-1.2 0-.495-.78-.495-1.72-.495-.951 0-1.718 0-1.718.495 0 .397.52 1.002 1.248 1.187v.693a.72.72 0 0 1-.717.73.718.718 0 0 1-.557-.246.467.467 0 0 0-.656-.063.469.469 0 0 0-.048.655c.31.372.766.582 1.26.582.458 0 .879-.197 1.188-.506.298.31.718.506 1.188.506.483 0 .94-.21 1.25-.582Z" id="Combined-Shape"/></g></g></svg>